<mxfile host="app.diagrams.net" agent="Mozilla/5.0 (Windows NT 10.0; Win64; x64) AppleWebKit/537.36 (KHTML, like Gecko) Chrome/130.0.0.0 Safari/537.36" version="24.7.17">
  <diagram name="Page-1" id="DEcZs13M8kG4qfNe7y76">
    <mxGraphModel dx="1434" dy="746" grid="1" gridSize="10" guides="1" tooltips="1" connect="1" arrows="1" fold="1" page="1" pageScale="1" pageWidth="1169" pageHeight="827" math="0" shadow="0">
      <root>
        <mxCell id="0" />
        <mxCell id="1" parent="0" />
        <mxCell id="Y_y-BXMUBeU9Xy5MR3ka-18" style="edgeStyle=orthogonalEdgeStyle;rounded=0;orthogonalLoop=1;jettySize=auto;html=1;" edge="1" parent="1" source="Y_y-BXMUBeU9Xy5MR3ka-2" target="Y_y-BXMUBeU9Xy5MR3ka-3">
          <mxGeometry relative="1" as="geometry" />
        </mxCell>
        <mxCell id="Y_y-BXMUBeU9Xy5MR3ka-2" value="HH" style="ellipse;whiteSpace=wrap;html=1;aspect=fixed;" vertex="1" parent="1">
          <mxGeometry x="420" y="170" width="80" height="80" as="geometry" />
        </mxCell>
        <mxCell id="Y_y-BXMUBeU9Xy5MR3ka-11" style="rounded=0;orthogonalLoop=1;jettySize=auto;html=1;entryX=0.5;entryY=0;entryDx=0;entryDy=0;edgeStyle=orthogonalEdgeStyle;curved=1;" edge="1" parent="1" source="Y_y-BXMUBeU9Xy5MR3ka-3" target="Y_y-BXMUBeU9Xy5MR3ka-4">
          <mxGeometry relative="1" as="geometry" />
        </mxCell>
        <mxCell id="Y_y-BXMUBeU9Xy5MR3ka-12" style="edgeStyle=orthogonalEdgeStyle;rounded=0;orthogonalLoop=1;jettySize=auto;html=1;curved=1;" edge="1" parent="1" source="Y_y-BXMUBeU9Xy5MR3ka-3" target="Y_y-BXMUBeU9Xy5MR3ka-6">
          <mxGeometry relative="1" as="geometry" />
        </mxCell>
        <mxCell id="Y_y-BXMUBeU9Xy5MR3ka-13" style="edgeStyle=orthogonalEdgeStyle;rounded=0;orthogonalLoop=1;jettySize=auto;html=1;curved=1;" edge="1" parent="1" source="Y_y-BXMUBeU9Xy5MR3ka-3" target="Y_y-BXMUBeU9Xy5MR3ka-8">
          <mxGeometry relative="1" as="geometry" />
        </mxCell>
        <mxCell id="Y_y-BXMUBeU9Xy5MR3ka-14" style="edgeStyle=orthogonalEdgeStyle;rounded=0;orthogonalLoop=1;jettySize=auto;html=1;entryX=0.5;entryY=0;entryDx=0;entryDy=0;curved=1;fillColor=#f8cecc;strokeColor=#b85450;" edge="1" parent="1" source="Y_y-BXMUBeU9Xy5MR3ka-3" target="Y_y-BXMUBeU9Xy5MR3ka-7">
          <mxGeometry relative="1" as="geometry" />
        </mxCell>
        <mxCell id="Y_y-BXMUBeU9Xy5MR3ka-15" style="edgeStyle=orthogonalEdgeStyle;rounded=0;orthogonalLoop=1;jettySize=auto;html=1;entryX=0.5;entryY=0;entryDx=0;entryDy=0;curved=1;fillColor=#f8cecc;strokeColor=#b85450;" edge="1" parent="1" source="Y_y-BXMUBeU9Xy5MR3ka-3" target="Y_y-BXMUBeU9Xy5MR3ka-9">
          <mxGeometry relative="1" as="geometry" />
        </mxCell>
        <mxCell id="Y_y-BXMUBeU9Xy5MR3ka-16" style="edgeStyle=orthogonalEdgeStyle;rounded=0;orthogonalLoop=1;jettySize=auto;html=1;entryX=0.5;entryY=0;entryDx=0;entryDy=0;curved=1;" edge="1" parent="1" source="Y_y-BXMUBeU9Xy5MR3ka-3" target="Y_y-BXMUBeU9Xy5MR3ka-10">
          <mxGeometry relative="1" as="geometry" />
        </mxCell>
        <mxCell id="Y_y-BXMUBeU9Xy5MR3ka-17" style="edgeStyle=orthogonalEdgeStyle;rounded=0;orthogonalLoop=1;jettySize=auto;html=1;entryX=0.5;entryY=0;entryDx=0;entryDy=0;curved=1;" edge="1" parent="1" source="Y_y-BXMUBeU9Xy5MR3ka-3" target="Y_y-BXMUBeU9Xy5MR3ka-5">
          <mxGeometry relative="1" as="geometry" />
        </mxCell>
        <mxCell id="Y_y-BXMUBeU9Xy5MR3ka-3" value="HH-Main" style="ellipse;whiteSpace=wrap;html=1;aspect=fixed;" vertex="1" parent="1">
          <mxGeometry x="420" y="300" width="80" height="80" as="geometry" />
        </mxCell>
        <mxCell id="Y_y-BXMUBeU9Xy5MR3ka-4" value="Main-Spouse" style="ellipse;whiteSpace=wrap;html=1;aspect=fixed;" vertex="1" parent="1">
          <mxGeometry x="170" y="430" width="80" height="80" as="geometry" />
        </mxCell>
        <mxCell id="Y_y-BXMUBeU9Xy5MR3ka-5" value="Main-Sibling" style="ellipse;whiteSpace=wrap;html=1;aspect=fixed;" vertex="1" parent="1">
          <mxGeometry x="940" y="430" width="80" height="80" as="geometry" />
        </mxCell>
        <mxCell id="Y_y-BXMUBeU9Xy5MR3ka-20" style="edgeStyle=orthogonalEdgeStyle;rounded=0;orthogonalLoop=1;jettySize=auto;html=1;" edge="1" parent="1" source="Y_y-BXMUBeU9Xy5MR3ka-6" target="Y_y-BXMUBeU9Xy5MR3ka-19">
          <mxGeometry relative="1" as="geometry" />
        </mxCell>
        <mxCell id="Y_y-BXMUBeU9Xy5MR3ka-6" value="Main-Child" style="ellipse;whiteSpace=wrap;html=1;aspect=fixed;" vertex="1" parent="1">
          <mxGeometry x="300" y="430" width="80" height="80" as="geometry" />
        </mxCell>
        <mxCell id="Y_y-BXMUBeU9Xy5MR3ka-7" value="Main-Grandchild" style="ellipse;whiteSpace=wrap;html=1;aspect=fixed;" vertex="1" parent="1">
          <mxGeometry x="560" y="430" width="80" height="80" as="geometry" />
        </mxCell>
        <mxCell id="Y_y-BXMUBeU9Xy5MR3ka-22" style="edgeStyle=orthogonalEdgeStyle;rounded=0;orthogonalLoop=1;jettySize=auto;html=1;" edge="1" parent="1" source="Y_y-BXMUBeU9Xy5MR3ka-8" target="Y_y-BXMUBeU9Xy5MR3ka-21">
          <mxGeometry relative="1" as="geometry" />
        </mxCell>
        <mxCell id="Y_y-BXMUBeU9Xy5MR3ka-8" value="Main-Parent" style="ellipse;whiteSpace=wrap;html=1;aspect=fixed;" vertex="1" parent="1">
          <mxGeometry x="430" y="430" width="80" height="80" as="geometry" />
        </mxCell>
        <mxCell id="Y_y-BXMUBeU9Xy5MR3ka-9" value="Main-Grandparent" style="ellipse;whiteSpace=wrap;html=1;aspect=fixed;" vertex="1" parent="1">
          <mxGeometry x="690" y="430" width="80" height="80" as="geometry" />
        </mxCell>
        <mxCell id="Y_y-BXMUBeU9Xy5MR3ka-10" value="Main-Others" style="ellipse;whiteSpace=wrap;html=1;aspect=fixed;" vertex="1" parent="1">
          <mxGeometry x="810" y="430" width="80" height="80" as="geometry" />
        </mxCell>
        <mxCell id="Y_y-BXMUBeU9Xy5MR3ka-19" value="Child-Grandchild" style="ellipse;whiteSpace=wrap;html=1;aspect=fixed;" vertex="1" parent="1">
          <mxGeometry x="300" y="580" width="80" height="80" as="geometry" />
        </mxCell>
        <mxCell id="Y_y-BXMUBeU9Xy5MR3ka-21" value="Parent-Grandparent" style="ellipse;whiteSpace=wrap;html=1;aspect=fixed;" vertex="1" parent="1">
          <mxGeometry x="440" y="580" width="80" height="80" as="geometry" />
        </mxCell>
      </root>
    </mxGraphModel>
  </diagram>
</mxfile>
